<?xml version="1.0" encoding="UTF-8" standalone="no"?>
<!DOCTYPE svg PUBLIC "-//W3C//DTD SVG 1.1//EN" "http://www.w3.org/Graphics/SVG/1.1/DTD/svg11.dtd">
<svg width="100%" height="100%" viewBox="0 0 347 194" version="1.1" xmlns="http://www.w3.org/2000/svg" xmlns:xlink="http://www.w3.org/1999/xlink" xml:space="preserve" xmlns:serif="http://www.serif.com/" style="fill-rule:evenodd;clip-rule:evenodd;stroke-linejoin:round;stroke-miterlimit:2;">
    <g id="Artboard1" transform="matrix(1,0,0,1,-17.2825,-103.987)">
        <rect x="17.282" y="103.987" width="346.97" height="193.561" style="fill:none;"/>
        <clipPath id="_clip1">
            <rect x="17.282" y="103.987" width="346.97" height="193.561"/>
        </clipPath>
        <g clip-path="url(#_clip1)">
            <g id="svgg" transform="matrix(1,0,0,1,-3.5984,36.4739)">
                <path id="path0" d="M268.917,68.954C268.612,69.029 267.848,69.717 267.384,70.333C267.281,70.471 267.146,70.854 267.084,71.185L266.971,71.788L268.205,72.465C271.293,74.16 272.062,76.268 270.424,78.551C268.737,80.902 268.575,81.409 269.396,81.752C269.706,81.882 270.004,82.103 270.058,82.244C270.112,82.385 270.265,82.5 270.398,82.5C270.53,82.5 270.67,82.594 270.709,82.708C270.805,82.993 271.316,82.567 271.519,82.034L271.669,81.638L272.509,82.341C272.971,82.728 273.488,83.317 273.658,83.649C274.012,84.343 274.784,85.167 275.08,85.167C275.546,85.167 276.791,83.115 276.925,82.126C276.978,81.736 277.055,81.248 277.097,81.042C277.156,80.751 277.097,80.667 276.837,80.667C276.452,80.667 276.412,80.47 276.702,80.005C277.154,79.281 276.318,79.397 275.423,80.183L274.868,80.671L273.642,79.65C272.968,79.089 272.393,78.608 272.364,78.582C272.335,78.555 272.493,78.169 272.716,77.725C274.251,74.665 273.268,71.268 270.268,69.266C269.613,68.829 269.517,68.806 268.917,68.954M264.829,77.786C263.687,78.578 262.923,79.4 263.262,79.473C263.41,79.505 263.485,79.632 263.434,79.765C263.365,79.945 263.51,80 264.051,80C264.441,80 264.927,80.117 265.131,80.261C265.662,80.632 265.958,80.476 267.06,79.242C268.143,78.03 268.143,78.014 267.034,77.722C265.943,77.434 265.31,77.452 264.829,77.786M263.633,83.007C262.564,83.572 261.415,84.911 262.169,84.714C262.407,84.652 262.479,84.693 262.417,84.855C262.304,85.149 264.078,85.149 264.627,84.854C264.957,84.678 266.333,82.986 266.333,82.757C266.333,82.508 264.204,82.706 263.633,83.007M270.75,83.496C269.617,83.977 268.695,85.447 269.008,86.271C269.354,87.182 270.148,86.419 271.169,84.195C271.608,83.237 271.558,83.153 270.75,83.496M272.918,85.787C272.049,86.392 271.994,86.447 271.368,87.362L270.835,88.142L271.24,88.948C271.462,89.392 271.844,89.941 272.088,90.169L272.531,90.583L273.106,89.917C274.252,88.589 274.494,87.742 274.272,85.833C274.204,85.249 273.716,85.232 272.918,85.787M266.845,87.151C266.415,87.754 266.363,90.483 266.751,92.126C266.886,92.7 267.077,93.825 267.176,94.626C267.274,95.428 267.416,96.588 267.491,97.205C267.667,98.657 268.8,103.307 269.654,106.083C270.217,107.916 273.092,119.611 273.259,120.75C273.463,122.135 274.23,125.273 274.503,125.833C274.93,126.712 275.945,129.949 276.149,131.083C276.376,132.346 276.661,134.064 276.778,134.875C276.883,135.605 276.928,135.625 277.334,135.125C278.039,134.256 277.73,136.392 276.914,138.03C275.911,140.043 276.603,141.193 277.732,139.389C278.419,138.29 278.669,137.627 279.1,135.759C279.268,135.031 279.533,134.326 279.688,134.193C279.905,134.007 279.93,133.883 279.794,133.666C279.654,133.441 279.744,133.175 280.225,132.396C280.56,131.854 280.833,131.318 280.833,131.205C280.833,130.955 282.264,130.92 282.417,131.167C282.473,131.258 282.401,131.333 282.256,131.333C282.111,131.333 281.92,131.523 281.832,131.754C281.744,131.986 281.539,132.223 281.378,132.281C280.48,132.605 280.17,132.999 280.258,133.7C280.41,134.915 280.728,134.986 281.534,133.983C281.836,133.607 282.271,133.202 282.5,133.083C282.729,132.965 283.742,132.03 284.75,131.006C286.881,128.842 286.796,128.9 288.183,128.678C289.347,128.491 289.567,128.311 290.75,126.573C291.065,126.11 291.645,125.498 292.037,125.214C292.429,124.93 293.377,124.129 294.142,123.434C295.913,121.827 298.908,119.73 300.913,118.694C301.187,118.553 301.862,117.991 302.413,117.445C303.444,116.426 304.102,116.126 306.333,115.655C306.746,115.568 307.287,115.348 307.535,115.165C308.128,114.729 308.36,114.746 308.845,115.263C309.14,115.576 309.374,115.674 309.711,115.625C309.97,115.587 310.254,115.654 310.357,115.778C310.458,115.9 310.607,116 310.687,116C310.889,116 310.872,115.377 310.667,115.25C310.575,115.193 310.5,114.917 310.5,114.637C310.5,114.021 309.811,112.831 308.958,111.975C308.615,111.629 308.333,111.274 308.333,111.185C308.333,110.91 307.389,110.333 306.938,110.333C306.703,110.333 306.189,110.165 305.797,109.958C304.789,109.429 301.571,109.431 300.124,109.963C299.249,110.285 299.115,110.295 298.588,110.075C297.739,109.72 297.297,109.775 296.526,110.333C296.147,110.608 295.772,110.833 295.694,110.833C295.616,110.833 295.415,110.984 295.249,111.168C295.082,111.352 294.865,111.487 294.765,111.467C294.473,111.411 293.474,111.998 292.685,112.691C292.282,113.044 291.851,113.333 291.726,113.333C291.283,113.333 289.303,115.556 288.827,116.587C288.488,117.323 288.195,118.893 288.408,118.831C289.527,118.506 289.772,118.324 290.167,117.528C290.396,117.066 290.658,116.709 290.75,116.736C290.842,116.762 291.142,116.47 291.417,116.088C292.46,114.636 294.571,113 295.4,113C295.825,113 295.709,113.406 295.171,113.804C294.68,114.167 293.811,115.741 293.71,116.449C293.665,116.765 293.746,116.821 294.325,116.865C295.499,116.956 294.408,118.099 289.917,121.486C289.092,122.109 287.756,123.21 286.949,123.934C286.142,124.658 285.12,125.55 284.678,125.917C283.251,127.1 281.819,128.564 281.456,129.21C280.976,130.063 280.791,129.931 280.558,128.57C280.448,127.936 280.241,127.088 280.096,126.687C279.952,126.286 279.833,125.831 279.833,125.675C279.833,125.504 279.336,125.076 278.576,124.595C277.021,123.61 276.876,123.39 276.238,121.05L275.724,119.168L276.154,118.885C276.445,118.693 276.879,118.611 277.5,118.63C278.659,118.665 280.855,118.378 281.07,118.163C281.319,117.915 281.548,117.969 281.44,118.25C281.38,118.405 281.441,118.5 281.598,118.5C281.738,118.5 281.81,118.57 281.757,118.655C281.602,118.905 281.993,119.047 282.25,118.833C282.379,118.726 282.56,118.684 282.652,118.741C282.744,118.798 282.932,118.626 283.07,118.359C283.208,118.092 283.442,117.827 283.591,117.77C283.965,117.626 284.036,117.64 283.917,117.833C283.788,118.041 283.868,118.042 284.399,117.84C284.786,117.693 285.5,116.496 285.5,115.993C285.5,115.888 285.651,115.59 285.835,115.331C286.02,115.072 286.387,114.423 286.653,113.888C286.918,113.354 287.329,112.706 287.567,112.45C288.008,111.974 288.138,111.5 287.828,111.5C287.134,111.5 285.147,113.106 284.908,113.862C284.758,114.333 284.448,114.23 284.568,113.75C284.691,113.261 284.646,113.249 283.979,113.594C283.519,113.832 283.35,113.829 282.029,113.562C278.489,112.845 274.833,113.369 274.833,114.593C274.833,115.264 274.501,114.654 274.034,113.125C273.543,111.515 273.338,110.765 272.158,106.25C271.895,105.242 271.374,103.563 271.002,102.52C270.231,100.362 269.376,96.724 268.921,93.667C268.859,93.254 268.598,92.129 268.34,91.167C268.007,89.923 267.885,89.115 267.92,88.375C267.957,87.568 267.915,87.333 267.734,87.333C267.605,87.333 267.5,87.183 267.5,87C267.5,86.528 267.246,86.587 266.845,87.151M244.333,100.221C244.333,100.342 244.155,100.609 243.938,100.813C243.684,101.052 243.505,101.458 243.438,101.95C243.255,103.283 242.753,103.533 242.167,102.583C241.799,101.989 241.5,101.825 241.5,102.218C241.5,102.861 241.046,103.101 240.609,102.691C240.078,102.192 239.947,102.283 239.596,103.399C239.311,104.306 239.309,104.308 238.811,104.134C237.773,103.772 235.276,104.55 234.413,105.504C234.025,105.933 234.347,106.5 234.977,106.5C235.591,106.5 235.512,107.326 234.821,108.119C233.05,110.152 233.352,113.471 235.217,112.473C235.414,112.368 235.591,112.367 235.719,112.472C236.456,113.076 237.165,112.655 237.174,111.607C237.182,110.64 238.884,108.5 239.646,108.5C239.838,108.5 240.346,108.162 240.777,107.75C241.559,107 241.75,106.914 242.227,107.098C242.411,107.168 242.197,107.414 241.462,107.978C239.051,109.829 238.347,112.132 239.842,113.281C240.796,114.014 241.652,113.762 241.095,112.912C240.207,111.556 240.581,110.193 242.075,109.338C242.541,109.071 243.093,108.623 243.301,108.342L243.679,107.83L244.338,108.207C245.075,108.627 245.081,108.65 244.745,109.583C243.888,111.964 245.048,115.333 246.726,115.333L247.272,115.333L246.716,114.208C246.205,113.174 245.831,111.65 245.61,109.698L245.529,108.98L246.015,109.087C246.46,109.184 246.501,109.154 246.513,108.722C246.524,108.343 246.565,108.398 246.722,109C246.873,109.581 247.034,109.806 247.437,110C247.723,110.138 248.036,110.438 248.132,110.667C249.357,113.582 249.826,114.811 249.829,115.115C249.835,115.629 250.059,115.708 250.459,115.336C250.963,114.866 250.425,112.945 249.204,110.855C248.85,110.25 248.812,110.072 248.978,109.807C249.14,109.548 249.122,109.393 248.887,108.995C248.676,108.637 248.647,108.453 248.78,108.32C249.069,108.031 249.669,108.429 249.631,108.884C249.613,109.101 249.89,109.644 250.286,110.171C250.664,110.673 251.151,111.421 251.368,111.833C252.12,113.257 252.418,113.665 252.708,113.666C252.869,113.666 253.001,113.648 253.003,113.625C253.004,113.602 253.103,113.301 253.224,112.956L253.442,112.328L254.479,113.789C255.049,114.593 255.854,115.79 256.268,116.45L257.02,117.65L256.235,119.16C255.5,120.576 255.468,120.689 255.726,120.973C255.876,121.14 256,121.361 256,121.465C256,121.569 256.412,122.26 256.917,123C257.421,123.74 257.833,124.377 257.833,124.415C257.833,124.727 258.89,125.968 259.09,125.891C259.265,125.824 259.333,125.92 259.333,126.232C259.333,126.686 259.485,126.781 259.764,126.502C259.872,126.394 259.921,126.552 259.905,126.961C259.874,127.814 260.148,127.917 260.791,127.294C261.511,126.596 261.49,126.954 260.766,127.721C259.643,128.912 260.337,130.364 261.497,129.253C262.319,128.466 262.642,128.999 261.833,129.808C261.152,130.489 261.133,131.346 261.792,131.676C262.512,132.037 262.947,131.999 263.148,131.558C263.341,131.135 263.579,131.056 263.763,131.354C263.914,131.598 264.455,130.421 264.596,129.544C264.661,129.135 264.633,128.832 264.525,128.765C264.41,128.695 264.384,128.263 264.449,127.557C264.536,126.629 264.508,126.435 264.269,126.3C264.088,126.199 264.022,126.028 264.085,125.828C264.144,125.643 264.017,125.219 263.778,124.798C262.421,122.417 261.606,121.052 261.407,120.827C261.282,120.686 261.063,120.293 260.921,119.952C260.58,119.137 260.201,119.155 259.346,120.027C258.599,120.789 258.597,120.794 258.828,121.403C258.929,121.668 259.078,121.793 259.226,121.736C259.825,121.506 260.725,124.405 260.163,124.752C260.024,124.838 259.996,124.775 260.07,124.543C260.148,124.297 260.055,124.132 259.713,123.908C259.458,123.742 259.175,123.52 259.083,123.416C258.992,123.312 258.51,122.803 258.012,122.286C256.935,121.167 256.954,120.5 258.063,120.5C258.655,120.5 258.654,120.501 259.711,118.788C260.197,118.001 259.813,117.755 259.001,118.332C258.378,118.776 258.183,118.365 258.647,117.58C258.941,117.081 258.945,117.017 258.697,116.768C258.479,116.55 258.462,116.408 258.608,116.021C258.725,115.712 258.732,115.444 258.629,115.26C258.541,115.104 258.517,114.786 258.576,114.555C258.653,114.248 258.565,113.981 258.253,113.573L257.825,113.011L258.454,112.684C259.163,112.317 260.167,111.438 260.167,111.186C260.167,110.865 259.869,110.841 259.315,111.117C258.447,111.551 256.731,111.5 256.403,111.031C256.263,110.831 256.04,110.667 255.907,110.667C255.569,110.667 255.608,110.518 256.036,110.171C256.362,109.907 256.378,109.838 256.169,109.586C255.961,109.336 255.972,109.28 256.258,109.126C256.637,108.921 258.246,107.279 258.792,106.539C259.492,105.589 259.171,104.84 258.379,105.575C258.126,105.809 257.843,106 257.748,106C257.653,106 257.315,106.213 256.996,106.474C256.678,106.735 256.253,107.035 256.053,107.141C255.676,107.34 253.333,107.415 253.333,107.228C253.333,107.071 254.186,106.348 254.688,106.08C255.147,105.835 255.4,105.409 255.241,105.152C255.082,104.894 254.784,104.987 253.841,105.588C252.791,106.257 252.717,106.267 252.189,105.827C251.815,105.516 251.809,105.478 252.064,105.089C252.508,104.412 252.436,103.719 251.958,104.064C250.756,104.935 250.959,104.919 249.717,104.236C248.305,103.46 247.957,103.172 248.146,102.933C248.466,102.526 248.689,101.511 248.523,101.214C248.372,100.944 248.342,100.956 248.196,101.34C248.107,101.573 247.914,101.864 247.767,101.986C247.62,102.108 247.5,102.351 247.5,102.526C247.5,102.973 247.031,103.106 246.76,102.736C246.564,102.468 246.5,102.459 246.251,102.666C245.306,103.45 244.667,102.901 244.667,101.307C244.667,100.547 244.597,100 244.5,100C244.408,100 244.333,100.099 244.333,100.221M253.708,102.77C252.939,103.614 252.996,103.85 253.885,103.512C254.436,103.302 254.834,102.149 254.347,102.171C254.294,102.173 254.006,102.443 253.708,102.77M238.582,107.168C238.416,107.352 238.244,107.466 238.199,107.422C238.088,107.31 238.503,106.833 238.713,106.833C238.808,106.833 238.749,106.984 238.582,107.168M252.56,107.917C252.46,108.178 252,108.269 252,108.028C252,107.824 252.192,107.667 252.439,107.667C252.564,107.667 252.615,107.773 252.56,107.917M236.982,108.875C236.874,109.081 236.637,109.463 236.455,109.723C236.273,109.983 235.99,110.545 235.826,110.973L235.528,111.75L235.348,111.281C234.944,110.235 235.14,109.665 236.157,108.92C236.904,108.374 237.254,108.355 236.982,108.875M243.278,109.468C242.447,111.318 242.351,113 243.076,113C243.339,113 243.414,112.771 243.587,111.443C243.644,110.999 243.831,110.312 244.001,109.915C244.32,109.169 244.282,108.5 243.92,108.5C243.806,108.5 243.517,108.935 243.278,109.468M253.083,109.923C253.413,110.183 253.122,110.61 252.712,110.468C252.578,110.422 251.833,109.379 251.833,109.238C251.833,109.134 252.653,109.583 253.083,109.923M255.625,109.875C255.587,109.99 255.456,110.083 255.333,110.083C255.211,110.083 255.08,109.99 255.042,109.875C255,109.751 255.119,109.667 255.333,109.667C255.548,109.667 255.666,109.751 255.625,109.875M291.217,110.3C288.975,111.465 286.877,114.128 286.594,116.167C286.544,116.533 286.313,117.048 286.071,117.333C285.1,118.478 284.93,122.379 285.893,121.417C286.03,121.279 286.255,121.167 286.391,121.167C286.696,121.167 287.055,120.229 287.505,118.258C287.693,117.435 288.054,116.427 288.31,116.008C288.566,115.591 288.972,114.818 289.212,114.29C289.644,113.342 289.85,113.157 290.556,113.081C290.755,113.06 290.975,113.033 291.045,113.021C291.646,112.922 293.601,110.504 293.434,110.068C293.288,109.688 292.168,109.805 291.217,110.3M266.798,116.758C266.748,116.808 266.154,116.981 265.478,117.142C263.991,117.497 262.642,118.472 262.479,119.307C262.288,120.285 262.395,120.541 262.9,120.311C263.344,120.108 264.084,120.413 264.666,121.038C265.133,121.539 266.151,121.587 266.518,121.125C266.783,120.792 266.787,120.793 266.896,121.227C267.084,121.975 267.409,121.718 267.705,120.589C268.099,119.087 267.404,116.152 266.798,116.758M252.894,121.992C251.495,122.326 250.458,124.333 251.684,124.333C252.011,124.333 252.121,124.739 251.841,124.912C251.754,124.966 251.515,125.245 251.31,125.533L250.938,126.055L251.316,125.956C251.595,125.883 251.67,125.918 251.604,126.09C251.402,126.616 251.896,126.489 252.492,125.862C253.134,125.187 253.637,124.354 253.759,123.766C253.795,123.591 253.984,123.278 254.18,123.07C254.592,122.63 254.484,122.333 253.912,122.333C253.624,122.333 253.537,122.263 253.606,122.083C253.711,121.812 253.672,121.807 252.894,121.992M254.529,124.719C254.082,125.195 254.074,125.582 254.491,126.52C255.072,127.825 255.7,127.948 256.005,126.816C256.104,126.447 256.223,126.046 256.27,125.924C256.348,125.721 255.234,124.333 254.994,124.333C254.938,124.333 254.728,124.507 254.529,124.719M238.667,129.5C238.414,130.109 238.278,130.127 238.03,129.583C237.788,129.052 237.535,129.053 237.332,129.586C237.244,129.817 236.988,130.076 236.763,130.162C236.538,130.247 236.265,130.49 236.156,130.7C236.047,130.911 235.81,131.247 235.628,131.446C235.447,131.645 235.341,131.878 235.394,131.964C235.487,132.114 234.46,133.455 234.057,133.71C233.82,133.86 232.433,135.947 232.273,136.394C232.18,136.656 232.122,136.67 231.899,136.485C231.502,136.156 231.06,136.848 230.93,138.003C230.785,139.282 230.784,139.28 232.648,140.463L234.291,141.507L234.306,142.264C234.324,143.158 234.278,143.097 237.623,146.611C240.197,149.314 240.251,149.344 240.656,148.278C240.774,147.967 240.735,147.712 240.499,147.248L240.184,146.631L240.551,146.936C240.752,147.104 241.084,147.387 241.289,147.564C241.927,148.116 242.695,148.102 242.573,147.541C242.136,145.538 239.918,142.656 236.836,140.085C235.563,139.024 235.346,138.674 235.467,137.875C235.557,137.276 235.759,137.422 236.676,138.748C237.211,139.522 237.61,139.95 237.728,139.875C237.832,139.809 237.989,139.754 238.077,139.753C238.164,139.751 238.284,139.518 238.342,139.235C238.399,138.952 238.513,138.615 238.594,138.485C238.675,138.356 238.781,137.917 238.829,137.511L238.917,136.771L239.377,137.469C240.086,138.543 240.96,138.44 241.24,137.25C241.609,135.68 241.507,135.256 240.482,134.088C240.007,133.547 239.99,133.486 240.245,133.231C240.396,133.08 240.478,132.85 240.428,132.719C240.378,132.588 240.452,132.205 240.593,131.868C240.94,131.037 240.796,130.612 239.869,129.743C238.933,128.865 238.93,128.864 238.667,129.5M302.601,129.7C302.263,129.889 302.25,130.5 302.583,130.5C302.721,130.5 302.833,130.599 302.833,130.721C302.833,130.946 303.51,131.667 303.721,131.667C303.992,131.667 304.887,132.832 305.438,133.903C305.765,134.537 306.21,135.325 306.427,135.653C306.644,135.981 307.193,137.188 307.648,138.335C308.103,139.482 308.743,140.98 309.071,141.664C309.398,142.348 309.667,142.997 309.667,143.108C309.667,143.218 309.894,143.875 310.171,144.569C310.449,145.262 310.814,146.374 310.981,147.04C311.838,150.437 314.296,154.01 315.834,154.091C316.381,154.12 317.387,154.382 318.333,154.742C319.204,155.074 320.742,155.609 321.75,155.933C323.531,156.503 324.356,156.803 325.442,157.273C325.731,157.398 326.199,157.5 326.484,157.5C326.768,157.5 327,157.575 327,157.667C327,157.758 327.088,157.833 327.195,157.833C327.303,157.833 327.525,157.955 327.688,158.103C328.074,158.452 328.872,158.285 328.809,157.869C328.785,157.712 328.862,157.407 328.981,157.19C329.233,156.734 329.063,156.477 328.469,156.416C328.257,156.394 328.026,156.366 327.955,156.355C327.884,156.343 327.476,155.791 327.047,155.128C326.618,154.466 326.076,153.711 325.842,153.451C325.415,152.976 324.131,150.162 323.773,148.917C323.667,148.55 323.53,148.171 323.468,148.074C323.405,147.978 322.817,146.553 322.16,144.908C320.886,141.717 319.873,139.653 319.205,138.888C318.979,138.629 318.612,138.146 318.391,137.816C317.549,136.561 313.242,133.138 311.417,132.273C310.715,131.94 309.171,131.508 306.867,130.998C306.106,130.829 305.178,130.533 304.805,130.338C303.716,129.771 302.898,129.534 302.601,129.7M277.587,154.161C277.527,154.258 276.858,154.333 276.062,154.333C274.271,154.333 271.708,154.896 271.283,155.382C270.695,156.055 266.381,157.292 262.417,157.925C259.883,158.33 258.335,158.877 256.631,159.972C255.352,160.794 255.04,162.163 256.131,162.169C256.704,162.172 256.945,162.329 257.024,162.75C257.152,163.429 259.09,163.317 259.774,162.592C260.348,161.984 260.934,161.834 261.3,162.2C261.428,162.328 261.5,162.336 261.5,162.222C261.5,162.046 262.591,162.164 262.938,162.378C263.027,162.434 263.772,162.562 264.592,162.663C265.412,162.765 266.258,162.885 266.472,162.93C266.801,163 266.844,162.961 266.752,162.673C266.668,162.409 266.718,162.333 266.975,162.333C267.157,162.333 267.333,162.251 267.367,162.15C267.41,162.019 267.635,162.023 268.163,162.166C269.803,162.607 270.535,162.651 270.624,162.312C270.669,162.14 270.801,162 270.917,162C271.033,162 271.17,161.839 271.221,161.643C271.344,161.173 272.588,161.273 274.75,161.926C275.575,162.175 276.536,162.46 276.885,162.56C278.626,163.056 279.539,160.65 277.826,160.081C276.977,159.799 276.679,159.55 277.409,159.733C277.668,159.798 278.143,159.692 278.701,159.446L279.583,159.056L280.583,159.527C281.133,159.785 281.608,160.073 281.638,160.165C281.669,160.258 281.807,160.333 281.945,160.333C282.082,160.333 282.701,160.783 283.32,161.333C284.588,162.46 284.667,162.495 284.667,161.927C284.667,161.703 284.742,161.473 284.833,161.417C285.282,161.139 285.006,160.319 284.375,160.055C284.031,159.912 283.493,159.569 283.179,159.293C282.865,159.017 282.366,158.691 282.07,158.567C281.554,158.352 281.539,158.318 281.679,157.713C281.962,156.493 282.177,156.706 278.305,154.36C277.92,154.127 277.654,154.053 277.587,154.161M279.904,157.169C280.599,157.629 281.167,158.041 281.167,158.086C281.167,158.273 280.853,158.124 279.75,157.412C278.747,156.765 278.558,156.696 278.398,156.913C278.297,157.053 278.131,157.167 278.031,157.167C277.668,157.167 276.146,156.799 276.217,156.728C276.257,156.688 276.593,156.723 276.964,156.807C277.516,156.931 277.725,156.902 278.111,156.647C278.371,156.476 278.597,156.335 278.613,156.334C278.629,156.334 279.21,156.709 279.904,157.169M312.583,158.583C311.25,159.219 311.216,159.271 311.084,160.846C310.882,163.272 311.701,167.428 312.774,169.417C312.922,169.692 313.208,170.223 313.41,170.597C314.149,171.966 315.524,174.164 315.72,174.289C315.831,174.359 316.546,175.148 317.309,176.042C318.071,176.935 318.767,177.667 318.854,177.667C318.941,177.667 319.165,178.023 319.351,178.458C319.757,179.406 321.698,181.333 322.247,181.333C322.289,181.333 322.756,181.531 323.285,181.773C326.396,183.196 329.814,183.181 332.236,181.733C333.542,180.952 334.907,180.997 337.554,181.908C338.487,182.229 340.269,182.752 341.515,183.071C342.76,183.389 343.96,183.72 344.181,183.807C345.836,184.458 346.736,184.528 347.582,184.073C348.358,183.655 348.282,183.528 346.821,182.8C345.557,182.17 344.909,181.934 343,181.408C342.404,181.244 341.002,180.749 339.883,180.309C337.812,179.494 335.919,179.129 334.167,179.206C331.199,179.337 327.833,174.48 326.747,168.5C326.528,167.297 326.499,165.984 326.662,164.621C326.983,161.934 326.994,161.652 326.781,161.592C326.672,161.562 326.171,161.455 325.667,161.355C320.639,160.357 317.758,159.622 315.795,158.834C313.873,158.063 313.702,158.05 312.583,158.583M260.908,158.645C260.664,158.869 259.833,159.026 259.833,158.849C259.833,158.683 260.195,158.552 260.742,158.519C260.936,158.508 261.003,158.559 260.908,158.645M56.383,171.375C56.093,171.856 55.636,172.509 55.369,172.826L54.883,173.401L54.419,172.367C53.798,170.985 53.82,170.976 53.139,172.875C53.032,173.173 52.837,173.544 52.705,173.699C52.573,173.854 52.4,174.561 52.321,175.269C52.205,176.302 52.083,176.676 51.704,177.154C51.444,177.482 50.942,178.229 50.589,178.815C50.236,179.401 49.378,180.488 48.682,181.232C47.986,181.975 47.12,182.977 46.757,183.458C45.952,184.527 45.98,184.526 45.51,183.487C44.877,182.085 41.46,177.154 40.611,176.415C39.487,175.437 38.842,174.497 39.023,174.1C39.453,173.156 38.32,171.737 37.767,172.527C37.469,172.952 37.1,172.753 36.93,172.076C36.792,171.527 36.283,171.547 35.91,172.117C35.747,172.365 35.241,172.942 34.784,173.399C33.262,174.92 32.697,176.873 33.402,178.17L33.865,179.019L33.338,180.718C31.975,185.108 32.067,183.588 32.251,198.833C32.388,210.212 31.768,217.549 30.146,223.75C29.787,225.125 29.386,226.737 29.256,227.333C29.125,227.929 28.871,228.904 28.69,229.5C28.154,231.267 27.043,235.506 26.834,236.583C26.727,237.133 26.563,237.921 26.469,238.333C26.185,239.584 25.898,243.504 25.994,244.833C26.082,246.068 25.952,247.963 25.668,249.583C25.499,250.542 25.028,253.963 24.796,255.917C24.708,256.65 24.644,257.616 24.652,258.063C24.66,258.511 24.482,259.551 24.256,260.375C23.773,262.137 24.173,262.121 24.853,260.352C26.709,255.527 26.797,255.262 27.814,251.5C28.905,247.465 29.72,244.039 30.153,241.667C30.345,240.612 30.647,239.188 30.824,238.5C31.002,237.813 31.338,236.463 31.572,235.5C32.188,232.96 34.274,225.159 34.474,224.643C34.648,224.195 36.15,217.615 36.599,215.333C37.573,210.391 38.033,203.675 38.06,194C38.084,185.49 38.105,185.256 38.747,186.296C38.932,186.597 39.552,187.568 40.125,188.454C40.698,189.341 41.167,190.1 41.167,190.141C41.167,190.182 41.447,190.561 41.789,190.983C42.132,191.405 42.488,191.853 42.581,191.978C42.94,192.463 45.217,194.667 45.358,194.667C45.568,194.667 47.115,193.043 47.627,192.284C48.135,191.532 48.2,189.814 47.772,188.438L47.52,187.625L48.385,186.688C48.861,186.172 49.288,185.713 49.334,185.667C49.85,185.153 51.849,182.632 52.044,182.25C52.854,180.661 53.052,180.853 53.507,183.676C53.706,184.908 54.012,186.367 54.188,186.917C54.363,187.467 54.773,189.154 55.098,190.667C55.424,192.179 55.766,193.754 55.859,194.167C55.952,194.579 56.046,195.029 56.067,195.167C56.089,195.304 56.153,195.529 56.209,195.667C56.365,196.047 56.658,197.395 57.006,199.333C57.179,200.296 57.555,201.946 57.841,203C58.127,204.054 58.612,205.892 58.92,207.083C59.227,208.275 59.675,209.963 59.915,210.833C60.155,211.704 60.579,213.354 60.855,214.5C61.907,218.853 62.33,220.456 62.748,221.667C62.984,222.354 63.357,223.667 63.576,224.583C63.795,225.5 64.125,226.662 64.31,227.167C64.495,227.671 64.958,229.243 65.338,230.661C65.718,232.079 66.144,233.462 66.285,233.735C66.744,234.623 67.949,239.133 68.672,242.667C68.868,243.629 69.142,244.867 69.28,245.417C69.592,246.664 70.121,249.127 70.331,250.314C70.418,250.808 70.53,251.252 70.578,251.301C70.81,251.532 70.835,251.068 70.676,249.478C70.202,244.721 70.639,244.613 71.602,249.25C71.83,250.35 72.126,251.416 72.258,251.619C72.391,251.822 72.5,252.197 72.501,252.452C72.502,252.708 72.651,253.142 72.833,253.417C73.015,253.692 73.165,254.081 73.166,254.282C73.166,254.483 73.242,254.693 73.334,254.75C73.603,254.917 73.809,254.126 73.802,252.953C73.799,252.353 73.852,251.771 73.921,251.66C74.101,251.368 74.039,244.873 73.836,242.917C73.659,241.2 73.379,239.527 72.832,236.917C72.66,236.092 72.433,234.967 72.33,234.417C72.051,232.941 71.119,229.425 70.258,226.598C69.841,225.23 69.5,224.011 69.5,223.887C69.5,223.763 69.43,223.532 69.344,223.373C69.162,223.034 67.774,218.64 66.924,215.714C66.599,214.595 66.226,213.357 66.095,212.964C65.846,212.215 65.289,209.886 65.088,208.75C65.024,208.383 64.755,207.408 64.492,206.583C64.229,205.758 63.743,204.071 63.412,202.833C62.631,199.916 62.328,198.846 61.595,196.417C61.262,195.317 60.81,193.592 60.59,192.583C60.07,190.211 58.872,185.513 58.676,185.083C58.454,184.597 58.103,183.405 57.339,180.55C56.967,179.157 56.513,177.669 56.331,177.245C55.923,176.292 55.919,176.001 56.304,175.116C57.356,172.695 57.71,171.47 57.511,170.945C57.261,170.288 56.973,170.397 56.383,171.375M214.922,177.861C214.88,177.983 214.699,178.496 214.52,179C214.341,179.504 214.065,180.517 213.907,181.25C213.748,181.983 213.508,182.921 213.374,183.333C213.205,183.852 213.092,185.319 213.009,188.097C212.942,190.305 212.84,192.187 212.783,192.28C212.725,192.373 212.643,194.955 212.599,198.016C212.556,201.078 212.469,205.308 212.405,207.417C212.323,210.158 212.356,212.009 212.52,213.917C212.647,215.383 212.734,217.896 212.714,219.5C212.634,225.842 212.475,230.179 212.248,232.167C211.764,236.409 211.87,238.425 212.547,237.863C212.736,237.707 212.87,237.731 213.185,237.979C213.724,238.403 214.94,238.424 215.159,238.014C215.314,237.724 216.118,234.366 216.478,232.5C217.276,228.376 217.391,219.036 216.763,209.333C216.556,206.121 216.647,191.924 216.881,191.123C216.916,191.003 218.904,194.867 219.176,195.583C219.245,195.767 219.427,196.254 219.58,196.667C219.732,197.079 220.065,197.792 220.318,198.25C220.572,198.708 220.869,199.441 220.977,199.878C221.085,200.315 221.434,201.231 221.753,201.912C222.072,202.594 222.333,203.213 222.333,203.289C222.333,203.365 222.596,204.049 222.916,204.809C223.237,205.57 223.722,206.821 223.993,207.591C224.543,209.147 224.994,210.213 225.578,211.333C225.793,211.746 226.32,213.283 226.748,214.75C227.177,216.217 227.672,217.783 227.847,218.231C228.023,218.678 228.167,219.128 228.167,219.231C228.169,219.526 229.238,222.293 229.898,223.709C230.229,224.42 230.5,225.104 230.5,225.229C230.5,225.355 230.826,226.198 231.225,227.104C231.625,228.009 232.004,228.975 232.069,229.25C232.134,229.525 232.438,230.275 232.744,230.917C234.054,233.662 234.498,234.65 234.842,235.588C235.042,236.136 235.436,237.071 235.716,237.667C236.156,238.601 236.226,238.939 236.226,240.125C236.227,241.573 236.257,241.668 236.581,241.225C236.866,240.836 237.106,241.052 237.226,241.804C237.387,242.808 237.797,243.67 238.066,243.567C238.771,243.296 240.113,239.6 240.571,236.667C241.163,232.875 241.179,200.323 240.59,197C240.55,196.771 240.473,195.158 240.419,193.417C240.321,190.185 240.287,189.666 239.981,186.75C239.62,183.298 239.306,180.879 239.074,179.75C238.942,179.108 238.834,178.372 238.833,178.114C238.833,177.461 237.949,177.509 237.86,178.167C237.829,178.396 237.643,178.757 237.446,178.969C237.113,179.328 237.088,179.536 237.072,182.052C237.063,183.536 236.975,185.875 236.875,187.25C236.776,188.625 236.688,193.987 236.679,199.167C236.67,204.346 236.588,210.458 236.496,212.75C236.285,218.051 236.002,223.054 235.907,223.149C235.866,223.189 235.833,223.135 235.833,223.028C235.833,222.922 235.583,222.291 235.277,221.626C234.972,220.961 234.581,220.042 234.409,219.583C234.237,219.125 233.749,218.037 233.324,217.167C232.899,216.296 232.434,215.321 232.29,215C231.479,213.187 230.815,211.642 230.498,210.834C230.301,210.33 230.08,209.842 230.007,209.75C229.696,209.358 228.187,206.36 227.993,205.75C227.876,205.383 227.646,204.844 227.482,204.551C227.318,204.259 226.843,203.238 226.427,202.282C225.749,200.726 224.475,198.324 223.037,195.894C222.759,195.423 222.008,193.987 221.369,192.703C220.73,191.419 219.981,190.041 219.706,189.64C219.43,189.24 218.809,188.164 218.324,187.249C217.84,186.335 217.232,185.226 216.972,184.786C216.617,184.184 216.5,183.77 216.5,183.118C216.499,180.749 215.305,176.768 214.922,177.861M141.016,178.875C140.653,179.356 140.125,179.886 139.843,180.052C139.03,180.531 138.855,181.052 138.907,182.84C138.933,183.707 138.859,185.354 138.742,186.5C138.525,188.646 138.544,197.022 138.769,197.833C138.832,198.063 138.91,199.862 138.941,201.833C139.067,209.763 139.186,213.624 139.327,214.417C139.558,215.714 139.512,227.165 139.276,227.172C139.168,227.175 139.2,227.267 139.349,227.38C139.56,227.542 139.641,228.11 139.747,230.167C140.055,236.135 140.564,237.895 141.802,237.272C142.049,237.148 142.451,236.999 142.697,236.94C143.594,236.725 144.46,234.696 144.877,231.833L145.108,230.25L145.679,230.279C145.993,230.295 146.625,230.423 147.083,230.564C151.002,231.77 151.712,231.943 154.667,232.417C156.081,232.644 156.27,232.644 156.435,232.419C156.537,232.28 156.666,232.167 156.723,232.167C157.089,232.167 160.206,229.924 160.557,229.408C161.058,228.671 160.985,228.312 160.36,228.435C160.091,228.489 159.098,228.266 157.833,227.868C156.688,227.507 154.85,226.969 153.75,226.671C152.65,226.374 151.431,226.031 151.041,225.909C150.651,225.786 149.252,225.477 147.932,225.222L145.531,224.757L145.619,222.587C145.667,221.393 145.62,219.217 145.514,217.75C145.293,214.705 144.845,206.888 144.838,205.971L144.833,205.358L145.875,205.772C147.596,206.455 149.687,206.809 152.604,206.911L155.292,207.006L155.808,206.524C156.091,206.259 156.944,205.722 157.703,205.33C159.234,204.539 160.006,204.041 159.97,203.866C159.958,203.802 160.004,203.621 160.073,203.464C160.305,202.935 160.088,202.775 159.073,202.722C158.529,202.694 157.596,202.561 157,202.425C151.21,201.11 149.821,200.859 147.051,200.63L144.667,200.433L144.647,199.841C144.538,196.523 144.474,195.548 144.251,193.786C144.109,192.666 143.879,190.963 143.739,190C143.367,187.432 143.113,185.133 143.147,184.637C143.172,184.283 143.691,184.421 145,185.126C148.717,187.13 156.664,187.972 158.361,186.541C158.514,186.412 159.264,185.989 160.028,185.6C162.493,184.345 162.791,184.15 162.808,183.772C162.816,183.577 162.845,183.284 162.87,183.122C162.912,182.857 162.712,182.82 160.917,182.752C159.817,182.711 158.392,182.569 157.75,182.437C151.055,181.059 146.599,180.338 144.667,180.32C142.589,180.301 142.56,180.285 142.33,179.068C142.082,177.75 141.888,177.722 141.016,178.875M83.533,178.367C83.423,178.477 83.331,178.683 83.328,178.825C83.321,179.164 83.035,179.512 82.397,179.96C81.865,180.333 81.771,180.519 81.24,182.25C81.072,182.8 80.499,184.276 79.967,185.53C79.435,186.784 79,187.913 79,188.039C79,188.164 78.935,188.338 78.856,188.425C78.653,188.647 78.365,191.184 78.25,193.75C78.197,194.942 78.009,197.004 77.833,198.333C77.657,199.662 77.466,201.261 77.408,201.885C77.314,202.913 77.263,203.037 76.861,203.203C74.588,204.139 72,205.644 72,206.028C72,206.296 72.757,206.468 73.546,206.379C74.076,206.319 74.506,206.377 74.896,206.562C75.21,206.711 75.812,206.833 76.234,206.833L77.001,206.833L76.914,209.792C76.721,216.401 76.517,218.26 75.518,222.5C74.941,224.945 74.498,227.657 74.238,230.333C74.099,231.754 73.919,233.343 73.837,233.864C73.618,235.264 73.794,236.667 74.19,236.667C74.36,236.667 74.5,236.779 74.5,236.917C74.5,237.276 75.063,237.225 75.417,236.833C75.583,236.65 75.845,236.5 76,236.5C76.582,236.5 77.443,234.847 78.65,231.409C80.093,227.301 82.218,218.24 82.85,213.5C83.513,208.537 83.523,208.485 83.816,208.571C83.963,208.614 84.983,208.695 86.083,208.751C88.535,208.875 88.77,208.92 88.884,209.29C88.934,209.451 89.161,210.108 89.388,210.75C89.615,211.392 90.076,212.929 90.412,214.167C90.748,215.404 91.198,217.054 91.411,217.833C92.118,220.418 92.488,221.906 92.677,222.917C93.234,225.901 94.818,231.476 95.33,232.25C95.39,232.342 95.543,232.754 95.669,233.167C95.795,233.579 96.065,234.121 96.268,234.371C96.472,234.621 96.685,235.033 96.743,235.288C97.053,236.667 99.648,238.471 100.411,237.838C100.517,237.75 100.87,237.721 101.194,237.773C101.609,237.841 101.807,237.802 101.862,237.643C102.138,236.844 100.911,230.656 99.339,224.917C97.957,219.872 97.198,216.884 96.842,215.083C96.507,213.391 96.421,213.04 95.512,209.706C95.23,208.673 95,207.802 95,207.771C95,207.74 95.467,207.387 96.038,206.987C97.385,206.042 98.476,204.818 98.494,204.229C98.498,204.106 98.09,204.049 97.292,204.063C96.627,204.074 95.573,204.021 94.948,203.944C93.661,203.786 93.756,203.902 93.166,201.75C92.739,200.193 91.6,196.817 91.245,196.058C91.11,195.769 91,195.486 91,195.428C91,195.03 88.665,188.667 87.994,187.238C87.539,186.268 87.167,185.435 87.167,185.387C87.167,185.339 86.782,184.539 86.311,183.608C85.366,181.74 84.833,180.332 84.833,179.702C84.833,178.783 83.987,177.913 83.533,178.367M251.653,178.709C250.902,179.363 250.276,180.367 250.129,181.154C249.613,183.919 249.521,184.848 249.616,186.333C249.672,187.204 249.707,189.117 249.694,190.583C249.67,193.224 249.696,202.221 249.731,203.667L249.75,204.417L248.449,204.44C247.734,204.453 247.101,204.51 247.044,204.568C246.709,204.902 248.741,206.5 249.501,206.5C249.793,206.5 249.846,206.865 249.93,209.451C249.977,210.899 250.054,212.421 250.102,212.833C250.244,214.05 250.292,223.838 250.184,229.417C250.041,236.778 249.748,236.255 254.083,236.391L254.917,236.417L255.019,235C255.075,234.221 255.241,233.246 255.388,232.833C256.377,230.052 256.512,224.03 255.868,211.442C255.73,208.75 255.618,208.912 257.366,209.267C259.35,209.669 261.335,209.517 265,208.682C265.321,208.609 266.055,208.355 266.631,208.117C267.207,207.88 268.013,207.635 268.422,207.574L269.167,207.462L269.167,208.561C269.167,209.165 269.24,210.768 269.329,212.122C269.418,213.476 269.531,216.796 269.58,219.5C269.677,224.889 269.852,227.904 270.238,230.833C270.377,231.887 270.57,233.387 270.667,234.166C270.866,235.756 271.328,236.425 272.093,236.233C272.371,236.163 272.524,236.233 272.664,236.495C273.2,237.497 273.875,236.473 274.764,233.311C275.479,230.767 275.537,225.736 274.919,219.917C274.89,219.642 274.855,216.28 274.843,212.446L274.819,205.476L275.227,205.155C275.783,204.717 276.737,202.67 276.496,202.43C276.397,202.331 275.926,202.25 275.45,202.25L274.583,202.25L274.549,200.75C274.423,195.316 273.374,186.257 272.348,181.75C272.265,181.383 272.1,180.652 271.981,180.125C271.862,179.598 271.686,179.168 271.591,179.17C271.033,179.182 270,180.733 270,181.559C270,181.783 269.805,182.854 269.567,183.941C269.203,185.603 269.141,186.26 269.178,188.083C269.231,190.754 269.231,191.836 269.17,197.873C269.116,203.199 269.163,202.997 267.956,203.111C267.568,203.148 266.913,203.256 266.502,203.352C266.011,203.465 264.518,203.481 262.168,203.396C260.197,203.326 258.508,203.291 258.417,203.319C258.325,203.347 257.875,203.4 257.417,203.437C256.958,203.473 256.306,203.54 255.966,203.586C255.22,203.685 255.229,203.722 255.092,200.25C255.041,198.967 254.89,196.829 254.757,195.5C254.624,194.171 254.436,191.821 254.339,190.279C254.156,187.36 253.832,184.958 253.391,183.25C253.249,182.7 252.966,181.392 252.761,180.343C252.355,178.258 252.287,178.158 251.653,178.709M170.583,179.82C168.701,180.179 165.833,181.483 165.833,181.98C165.833,182.17 165.595,182.441 165.25,182.645C164.168,183.283 164.587,183.494 166.946,183.498C168.31,183.5 168.525,183.543 168.946,183.896C170.135,184.896 173.59,186.338 176.5,187.049C179.881,187.875 181.583,188.044 183.875,187.78C184.86,187.666 185.667,187.586 185.667,187.601C185.667,187.669 183.876,190.313 183.474,190.838C183.231,191.156 182.788,191.904 182.49,192.5C182.192,193.096 181.791,193.807 181.599,194.081C181.407,194.355 181.17,194.73 181.071,194.914C180.664,195.679 180.369,196.161 179.379,197.683C178.806,198.563 178.223,199.538 178.083,199.85C177.697,200.711 176.33,203.217 176.092,203.5C175.835,203.805 173.429,208.752 173.255,209.333C173.186,209.563 172.773,210.612 172.336,211.667C171.898,212.721 171.227,214.553 170.842,215.737C170.458,216.922 170.009,218.16 169.843,218.487C169.678,218.815 169.417,219.608 169.263,220.25C169.016,221.282 168.588,222.574 168.159,223.583C168.082,223.767 167.792,224.592 167.516,225.417C166.391,228.777 166.161,229.197 165.147,229.75C164.258,230.234 163.5,230.81 163.5,231C163.5,231.051 163.877,231.24 164.338,231.418C165.136,231.728 165.174,231.772 165.145,232.33C165.1,233.214 165.349,234.734 165.562,234.872C165.908,235.097 166.445,235.003 166.752,234.664C166.933,234.465 167.174,234.366 167.348,234.421C167.565,234.49 167.838,234.236 168.418,233.424C169.294,232.195 169.198,232.255 169.8,232.566C171.818,233.608 174.856,233.995 181.083,234.003C183.65,234.006 186.162,234.022 186.667,234.038C187.764,234.073 189.303,233.929 190.333,233.696C190.746,233.602 191.381,233.527 191.744,233.529C192.26,233.532 192.491,233.434 192.796,233.079L193.186,232.625L192.832,232.248C192.1,231.47 187.657,229.824 184.917,229.317C181.178,228.625 178.112,228.324 174.446,228.288C171.325,228.258 171.486,228.404 172.242,226.283C172.799,224.723 174.357,220.538 174.675,219.75C174.749,219.567 175.182,218.329 175.638,217C176.094,215.671 176.784,213.871 177.172,213C177.56,212.129 178.188,210.667 178.568,209.75C178.948,208.833 179.454,207.746 179.692,207.333C179.93,206.921 180.498,205.871 180.953,205C181.409,204.129 182.063,202.929 182.407,202.333C182.75,201.737 183.302,200.725 183.632,200.083C183.962,199.442 184.569,198.392 184.98,197.75C185.391,197.108 186.113,195.833 186.584,194.917C187.055,194 188.136,191.9 188.986,190.25C189.837,188.6 190.987,186.35 191.543,185.25C192.099,184.15 192.85,182.828 193.212,182.312C193.904,181.326 194.233,179.997 193.845,179.757C193.602,179.607 192.833,180.097 192.833,180.402C192.833,180.526 192.321,180.933 191.695,181.305C191.069,181.677 190.46,182.097 190.343,182.239C189.443,183.322 189.034,183.31 185.273,182.088C184.277,181.765 183.345,181.5 183.201,181.5C183.058,181.5 182.71,181.43 182.428,181.345C176.699,179.615 173.689,179.227 170.583,179.82M201.125,180.472C200.847,180.641 200.667,180.895 200.667,181.121C200.667,181.363 200.495,181.58 200.173,181.747C199.268,182.215 198.766,183.358 198.633,185.25C198.312,189.842 198.004,205.269 198.227,205.629C198.369,205.859 198.383,218.228 198.248,224.341C198.131,229.661 198.148,230.579 198.381,231.591C198.528,232.228 198.694,233.101 198.749,233.53C198.863,234.407 199.384,235.201 199.754,235.059C199.907,235 200.104,235.155 200.29,235.482C200.963,236.666 201.952,235.032 203.152,230.75C203.435,229.742 203.731,228.692 203.811,228.417C203.891,228.142 203.973,227.354 203.993,226.667C204.013,225.979 204.086,224.367 204.157,223.083C204.437,217.983 204.164,199.483 203.761,196.25C203.727,195.975 203.615,194.625 203.512,193.25C202.612,181.173 202.343,179.731 201.125,180.472M130.067,180.461C129.966,180.528 129.79,180.76 129.677,180.975C129.563,181.191 129.109,181.866 128.668,182.475C127.374,184.263 126.909,186.85 126.987,191.833C126.998,192.521 126.998,196.693 126.988,201.104C126.974,207.515 127.026,209.639 127.246,211.689C127.398,213.099 127.496,214.627 127.465,215.085L127.409,215.917L127.058,215.167C125.88,212.65 123.083,206.915 122.587,206C122.264,205.404 121.166,203.239 120.147,201.188C119.129,199.138 118.09,197.151 117.84,196.772C117.589,196.393 116.931,195.183 116.378,194.083C115.059,191.462 114.198,189.825 114.021,189.599C113.943,189.499 113.505,188.704 113.049,187.833C110.728,183.407 108.919,180.521 108.457,180.508C107.884,180.492 106.876,183.076 106.755,184.87C106.697,185.721 106.578,187.054 106.489,187.833C106.048,191.72 106.046,192.034 106.42,200C106.461,200.871 106.537,203.827 106.588,206.57C106.639,209.312 106.733,211.637 106.796,211.736C106.86,211.835 106.916,216.117 106.922,221.25C106.928,226.383 106.988,230.957 107.056,231.414C108.069,238.299 111.018,234.126 111.824,224.667C112.265,219.502 112.467,215.019 112.403,211.833C112.311,207.323 112.183,203.721 112.088,203C111.934,201.823 111.893,199.159 112.032,199.298C112.208,199.475 114.52,204.201 114.821,205C115.16,205.901 119.682,215.051 119.93,215.337C120.05,215.476 120.802,216.864 121.601,218.42C122.399,219.977 123.362,221.813 123.741,222.5C124.12,223.188 124.611,224.2 124.833,224.75C125.054,225.3 125.51,226.313 125.844,227C126.179,227.688 126.51,228.438 126.581,228.667C126.755,229.231 128.006,231.333 128.168,231.333C128.37,231.333 128.521,231.825 128.668,232.964C128.875,234.571 129.646,235.067 130.278,233.997C130.528,233.574 130.665,233.502 131.148,233.539C131.676,233.58 131.734,233.537 131.875,233C131.959,232.679 132.137,232.296 132.269,232.148C133.798,230.442 134.135,220.495 133.138,206.5C132.952,203.887 132.737,199.05 132.661,195.75C132.49,188.376 132.284,186.6 130.914,180.708C130.828,180.337 130.428,180.22 130.067,180.461M294.311,183.078C294.268,183.121 293.712,183.19 293.075,183.231C292.438,183.272 291.706,183.387 291.447,183.486C291.189,183.585 290.789,183.667 290.557,183.667C290.143,183.667 287.526,185.136 286.625,185.874C285.061,187.155 284.327,187.861 283.665,188.724C282.891,189.732 281.667,191.48 281.667,191.578C281.667,191.608 281.422,191.997 281.123,192.442C280.824,192.886 280.473,193.588 280.343,194C280.212,194.412 279.857,195.299 279.553,195.971C279.249,196.642 279,197.364 279,197.575C279,197.786 278.887,198.229 278.749,198.559C278.568,198.994 278.474,200.067 278.409,202.455C278.361,204.267 278.247,206.425 278.157,207.25C277.851,210.057 277.818,212.833 278.07,214.583C278.203,215.5 278.388,216.871 278.483,217.631C278.655,219.005 280.131,224.888 280.584,226C280.714,226.321 280.906,226.921 281.01,227.333C281.114,227.746 281.259,228.158 281.333,228.25C281.406,228.342 281.577,228.792 281.712,229.25C282.262,231.109 283.391,232.667 284.189,232.667C284.347,232.667 284.589,232.779 284.726,232.917C284.864,233.054 285.127,233.167 285.312,233.167C285.497,233.167 285.921,233.328 286.254,233.525C286.731,233.806 287.205,233.897 288.471,233.949C289.357,233.985 290.153,234.086 290.241,234.174C290.685,234.618 292.351,233.889 293.843,232.597C294.169,232.314 294.781,231.846 295.202,231.556C298.326,229.408 301.261,222.714 302.317,215.333C302.848,211.618 303,208.889 302.819,206.322C302.532,202.269 302.303,200.742 301.496,197.5C301.302,196.721 301.08,195.746 301.003,195.333C300.926,194.921 300.752,194.246 300.617,193.833C300.481,193.421 300.021,191.658 299.593,189.917C299.165,188.175 298.744,186.62 298.657,186.461C298.571,186.301 298.5,186.026 298.5,185.849C298.5,184.127 296.453,185.43 295.26,187.911C294.675,189.13 294.553,198.523 295.076,202.144C295.534,205.311 295.323,211.022 294.621,214.5C294.482,215.188 294.238,216.612 294.08,217.667C293.772,219.712 293.211,222.334 292.76,223.833C292.517,224.643 291.716,227.518 291.414,228.667C291.233,229.355 290.682,230.38 290.159,231L289.667,231.583L289.161,231C287.893,229.535 287.253,227.455 286.326,221.774C286.148,220.687 285.934,219.524 285.849,219.19C285.711,218.646 285.534,217.409 285.238,214.917C285.072,213.519 285.033,207.99 285.181,206.75C285.258,206.108 285.389,205.096 285.474,204.5C286.626,196.374 286.676,196.169 288.437,192.375C288.66,191.894 288.916,191.5 289.005,191.5C289.094,191.5 289.167,191.313 289.167,191.083C289.167,190.854 289.319,190.535 289.504,190.375C289.69,190.215 290.084,189.845 290.379,189.555C290.901,189.041 291.708,188.503 292.442,188.179C292.639,188.092 292.85,187.941 292.91,187.844C292.97,187.746 293.134,187.667 293.274,187.667C293.631,187.667 295.979,186.017 296.194,185.616C296.291,185.434 296.669,184.962 297.033,184.567C297.763,183.775 297.805,183.327 297.166,183.149C296.69,183.017 294.428,182.96 294.311,183.078M338.07,189.991C337.38,191.034 337.609,191.441 340.218,193.806C342.858,196.199 343.988,197.398 345.044,198.931C351.631,208.485 353.437,215.312 352.164,225.833C351.561,230.815 351.168,232.497 350.082,234.757C349.683,235.585 349.081,236.892 348.743,237.66C345.052,246.055 340.608,250.507 331.458,254.974C327.543,256.885 327.092,257.165 327.511,257.424C327.609,257.484 327.652,257.632 327.606,257.751C327.019,259.281 331.565,258.743 334.75,256.906C335.117,256.694 336.373,256.105 337.542,255.596C338.71,255.088 340.114,254.445 340.662,254.169C341.209,253.893 341.753,253.666 341.87,253.666C342.275,253.665 346.758,251.137 348.852,249.73C359.016,242.896 364.011,234.455 363.562,224.867C363.03,213.505 360.974,206.601 355.055,196.307C353.836,194.189 351.917,191.699 351.325,191.47C351.164,191.407 350.256,191.271 349.308,191.167C347.59,190.979 345.978,190.736 343.037,190.224C341.961,190.036 341.327,190.001 340.954,190.109C340.505,190.238 340.274,190.187 339.545,189.798C338.467,189.224 338.588,189.208 338.07,189.991M86.167,201.255C86.167,201.379 86.242,201.527 86.333,201.583C87.015,202.005 86.481,202.45 85.331,202.418C83.849,202.376 83.931,202.555 84.238,200.05C84.382,198.869 84.504,197.606 84.51,197.243C84.518,196.674 84.633,196.89 85.343,198.807C85.796,200.03 86.167,201.131 86.167,201.255" style="fill:rgb(250,250,250);"/>
            </g>
        </g>
    </g>
</svg>
