<?xml version="1.0" encoding="UTF-8" standalone="no"?>
<!DOCTYPE svg PUBLIC "-//W3C//DTD SVG 1.1//EN" "http://www.w3.org/Graphics/SVG/1.1/DTD/svg11.dtd">
<svg width="100%" height="100%" viewBox="0 0 1580 530" version="1.1" xmlns="http://www.w3.org/2000/svg" xmlns:xlink="http://www.w3.org/1999/xlink" xml:space="preserve" xmlns:serif="http://www.serif.com/" style="fill-rule:evenodd;clip-rule:evenodd;stroke-linejoin:round;stroke-miterlimit:2;">
    <g id="Artboard1" transform="matrix(0.986864,0,0,0.984109,-18.0692,-42.2545)">
        <rect x="18.31" y="42.937" width="1600.82" height="538.175" style="fill:none;"/>
        <clipPath id="_clip1">
            <rect x="18.31" y="42.937" width="1600.82" height="538.175"/>
        </clipPath>
        <g clip-path="url(#_clip1)">
            <g transform="matrix(0.101331,0,0,-0.101615,-21.2375,660.194)">
                <path d="M2185,5953C2158,5911 2131,5875 2125,5873C2120,5872 2104,5895 2091,5925C2078,5955 2064,5980 2060,5980C2055,5980 2046,5963 2040,5943C2033,5922 2019,5889 2008,5870C1997,5851 1984,5804 1979,5766C1971,5704 1964,5688 1896,5586C1855,5525 1800,5453 1775,5425C1749,5398 1706,5347 1678,5313C1651,5278 1625,5250 1621,5250C1617,5250 1602,5271 1589,5298C1532,5411 1382,5618 1273,5732C1209,5799 1209,5799 1224,5829C1237,5853 1237,5860 1226,5869C1218,5876 1209,5892 1206,5905C1198,5936 1165,5938 1149,5909C1137,5886 1126,5892 1106,5932C1092,5960 1059,5962 1045,5935C1040,5923 1010,5888 979,5857C931,5808 920,5789 901,5726C875,5634 875,5637 905,5592C931,5554 937,5521 921,5504C908,5492 863,5318 844,5210C833,5147 831,5087 836,4975C839,4893 842,4591 842,4305C842,3849 840,3759 821,3575C796,3321 780,3211 751,3095C734,3025 670,2780 633,2640C551,2332 539,2279 519,2145C506,2052 499,1956 499,1860C499,1727 495,1668 470,1480C465,1444 457,1378 451,1332C445,1287 439,1246 436,1242C433,1238 429,1180 425,1115C421,1041 411,970 399,931C337,727 440,936 525,1185C555,1273 640,1585 669,1710C681,1762 695,1823 700,1845C706,1867 721,1941 734,2010C747,2079 767,2173 779,2220C790,2267 811,2352 825,2410C839,2468 856,2538 864,2565C872,2593 897,2686 920,2774C943,2861 965,2942 970,2954C977,2974 1066,3363 1089,3478C1106,3562 1138,3835 1156,4044C1168,4187 1172,4353 1171,4703C1171,4960 1174,5170 1178,5170C1183,5170 1202,5145 1221,5115C1239,5085 1273,5032 1295,4999C1317,4965 1340,4930 1345,4921C1392,4846 1562,4660 1584,4660C1594,4660 1665,4734 1708,4788C1731,4818 1734,4830 1733,4898C1732,4941 1725,4993 1717,5015L1703,5055L1811,5177C1871,5245 1927,5313 1936,5328C1975,5390 2003,5430 2009,5430C2013,5430 2027,5370 2040,5298C2052,5225 2073,5131 2086,5090C2098,5049 2120,4961 2134,4895C2168,4733 2196,4612 2209,4570C2215,4551 2227,4492 2236,4440C2245,4388 2268,4287 2287,4215C2306,4144 2335,4033 2351,3970C2368,3907 2390,3828 2400,3795C2418,3739 2450,3610 2515,3330C2529,3267 2547,3206 2554,3195C2561,3184 2584,3112 2604,3035C2625,2958 2657,2846 2675,2785C2694,2725 2716,2646 2725,2610C2734,2574 2753,2518 2766,2484C2803,2390 2837,2271 2880,2080C2902,1984 2936,1840 2955,1760C2973,1680 2996,1579 3005,1535C3014,1491 3024,1453 3027,1450C3032,1445 3026,1576 3013,1713C3009,1760 3011,1780 3019,1780C3025,1780 3030,1771 3030,1759C3030,1748 3036,1726 3044,1712C3052,1697 3066,1647 3075,1600C3099,1478 3110,1440 3120,1440C3126,1440 3130,1423 3130,1401C3130,1378 3138,1353 3149,1338C3160,1325 3170,1301 3172,1285L3176,1255L3187,1280C3203,1313 3218,1565 3214,1710C3208,1921 3196,2013 3135,2325C3096,2521 3083,2572 3009,2820C2941,3044 2931,3078 2867,3280C2773,3578 2752,3650 2720,3790C2703,3864 2679,3959 2665,4000C2640,4077 2585,4268 2544,4423C2531,4472 2507,4558 2491,4613C2474,4669 2440,4796 2416,4895C2391,4994 2359,5116 2344,5165C2330,5215 2296,5334 2269,5430C2243,5526 2211,5628 2199,5658L2177,5711L2200,5768C2255,5907 2276,5976 2270,6000C2259,6044 2237,6032 2185,5953Z" style="fill-rule:nonzero;"/>
                <path d="M12483,5653C12476,5651 12470,5638 12470,5626C12470,5614 12462,5593 12453,5580C12438,5559 12435,5531 12434,5405C12434,5323 12429,5193 12423,5117C12417,5041 12411,4726 12411,4412C12410,3881 12399,3405 12384,3176L12377,3076L12355,3122C12342,3148 12312,3218 12286,3278C12261,3339 12222,3423 12201,3466C12180,3510 12134,3610 12100,3690C12065,3770 12017,3870 11993,3913C11968,3956 11939,4014 11928,4043C11917,4071 11889,4135 11866,4185C11843,4234 11817,4291 11810,4310C11802,4329 11763,4403 11722,4473C11642,4614 11592,4704 11515,4852C11488,4905 11447,4979 11424,5017C11402,5054 11358,5130 11328,5185C11274,5282 11272,5289 11261,5396C11249,5513 11212,5645 11190,5645C11175,5645 11135,5538 11125,5473C11121,5448 11109,5396 11098,5356C11083,5301 11076,5234 11069,5065C11051,4650 11044,4245 11048,3880C11057,3160 11052,2729 11035,2577C11017,2425 11015,2315 11028,2235C11029,2230 11035,2231 11042,2238C11058,2254 11085,2253 11099,2237C11105,2229 11130,2223 11154,2223L11198,2222L11219,2298C11279,2524 11312,2816 11311,3127C11310,3362 11296,3760 11281,3945C11275,4018 11274,4214 11279,4445C11283,4654 11285,4845 11282,4870C11280,4895 11281,4912 11284,4909C11299,4895 11403,4682 11441,4588C11464,4531 11488,4478 11495,4470C11501,4462 11515,4426 11525,4390C11534,4354 11551,4307 11563,4285C11586,4239 11680,4008 11717,3905C11731,3867 11759,3799 11780,3755C11815,3681 11870,3518 11890,3430C11904,3369 11986,3148 12029,3058C12051,3010 12070,2966 12070,2961C12070,2943 12170,2697 12231,2566C12264,2495 12301,2412 12312,2381C12323,2350 12346,2296 12363,2260C12389,2204 12393,2185 12392,2117C12391,2040 12392,2038 12410,2055C12436,2079 12447,2068 12455,2010C12459,1982 12466,1960 12471,1960C12476,1960 12480,1951 12480,1940C12480,1877 12554,1995 12590,2113C12651,2321 12652,2332 12657,3175C12661,3906 12656,4207 12630,4615C12625,4698 12618,4821 12616,4890C12608,5076 12562,5484 12540,5560C12535,5579 12530,5607 12530,5621C12530,5636 12523,5651 12514,5654C12505,5657 12498,5660 12497,5659C12496,5659 12489,5656 12483,5653Z" style="fill-rule:nonzero;"/>
                <path d="M6995,5571C6975,5544 6944,5512 6925,5501C6882,5476 6870,5433 6875,5320C6878,5273 6875,5206 6869,5170C6854,5077 6858,4533 6874,4445C6878,4428 6882,4289 6885,4135C6888,3982 6895,3777 6900,3680C6906,3584 6912,3355 6914,3173C6916,2887 6915,2840 6902,2840C6892,2840 6893,2835 6908,2823C6926,2807 6929,2788 6935,2635C6939,2542 6944,2462 6946,2458C6949,2454 6955,2424 6960,2393C6978,2280 7008,2243 7058,2269C7067,2274 7089,2283 7105,2289C7156,2308 7210,2449 7226,2603C7232,2659 7236,2670 7251,2670C7268,2670 7339,2650 7451,2614C7505,2597 7663,2562 7740,2550C7770,2546 7812,2539 7832,2535C7862,2529 7871,2531 7876,2544C7879,2553 7886,2560 7892,2560C7916,2560 8102,2694 8116,2722C8134,2757 8129,2765 8085,2766C8067,2767 8010,2781 7958,2798C7845,2834 7709,2875 7655,2889C7521,2923 7483,2931 7374,2951L7254,2974L7258,3116C7261,3194 7257,3316 7251,3386C7245,3457 7238,3571 7235,3640C7231,3709 7225,3826 7220,3900C7207,4078 7207,4085 7223,4073C7244,4057 7352,4022 7430,4006C7471,3998 7574,3989 7657,3986C7801,3982 7811,3982 7820,4001C7826,4011 7835,4020 7840,4020C7845,4020 7864,4030 7882,4043C7901,4055 7949,4082 7990,4103C8054,4135 8067,4146 8076,4176C8089,4218 8085,4221 8016,4226C7950,4231 7860,4246 7735,4275C7551,4318 7432,4336 7291,4345C7244,4348 7205,4351 7204,4353C7203,4354 7199,4411 7197,4480C7192,4602 7159,4916 7140,5015C7135,5043 7128,5094 7125,5130C7123,5166 7117,5210 7114,5228C7107,5260 7108,5261 7136,5254C7152,5250 7190,5235 7220,5220C7250,5205 7311,5181 7355,5166C7399,5151 7444,5135 7455,5130C7499,5111 7600,5100 7724,5100C7872,5101 7936,5113 7997,5153C8021,5168 8043,5180 8047,5180C8070,5180 8224,5280 8226,5297C8228,5307 8230,5323 8232,5333C8235,5349 8224,5351 8124,5355C8055,5357 7944,5372 7829,5393C7453,5465 7292,5489 7160,5493L7085,5495L7071,5558C7062,5596 7051,5620 7043,5620C7036,5620 7014,5598 6995,5571Z" style="fill-rule:nonzero;"/>
                <path d="M13234,5573C13213,5547 13192,5519 13187,5512C13170,5489 13128,5252 13138,5235C13141,5230 13145,4998 13147,4720C13149,4442 13151,4199 13153,4180L13155,4145L13078,4142C13027,4140 13000,4135 13000,4128C13000,4112 13051,4060 13066,4060C13072,4060 13083,4053 13090,4045C13097,4037 13110,4030 13120,4030C13130,4030 13142,4024 13148,4018C13153,4011 13161,3933 13164,3845C13167,3757 13175,3624 13181,3550C13188,3465 13190,3290 13186,3080C13180,2750 13177,2475 13179,2414C13180,2373 13214,2350 13283,2344C13312,2341 13361,2337 13393,2334L13450,2328L13450,2392C13450,2426 13457,2478 13466,2505C13533,2723 13539,2918 13502,3715C13497,3809 13494,3886 13494,3886C13495,3887 13529,3882 13570,3874C13670,3856 13790,3857 13869,3875C13905,3884 13939,3889 13945,3886C13951,3884 13964,3888 13975,3896C13985,3904 14004,3910 14017,3910C14030,3910 14067,3921 14101,3934C14134,3948 14181,3962 14205,3966L14250,3972L14251,3919C14251,3889 14253,3849 14254,3830C14260,3753 14270,3453 14275,3250C14281,2975 14289,2852 14314,2660C14350,2392 14351,2386 14370,2368C14381,2358 14401,2350 14415,2350C14430,2350 14449,2341 14459,2328C14486,2295 14504,2311 14533,2392C14582,2526 14588,2555 14605,2780C14608,2810 14602,2930 14593,3045C14584,3162 14574,3438 14571,3670L14565,4085L14592,4108C14624,4135 14674,4235 14666,4256C14662,4267 14646,4270 14608,4268L14555,4265L14553,4355C14551,4464 14534,4687 14514,4870C14483,5153 14406,5575 14384,5575C14348,5575 14290,5480 14290,5422C14290,5407 14283,5361 14274,5320C14242,5165 14238,5110 14250,4987C14257,4922 14259,4850 14256,4827C14252,4804 14249,4662 14249,4512C14248,4320 14244,4238 14236,4233C14208,4215 14085,4207 13840,4206C13694,4205 13549,4201 13518,4196L13460,4188L13460,4279C13460,4329 13451,4463 13440,4578C13430,4692 13416,4853 13410,4935C13397,5120 13387,5189 13350,5355C13333,5427 13314,5514 13307,5549C13301,5585 13290,5615 13284,5617C13277,5619 13255,5599 13234,5573Z" style="fill-rule:nonzero;"/>
                <path d="M3742,5588C3737,5581 3729,5565 3726,5553C3722,5541 3702,5517 3680,5500C3650,5476 3639,5459 3629,5417C3622,5389 3593,5309 3565,5240C3466,5002 3456,4956 3445,4720C3441,4646 3430,4523 3419,4447C3409,4372 3400,4291 3400,4267C3400,4211 3391,4180 3374,4180C3331,4180 3090,4043 3090,4019C3090,4008 3159,3998 3189,4005C3204,4008 3232,4004 3253,3995C3273,3987 3310,3980 3335,3980L3380,3980L3375,3823C3363,3462 3350,3336 3300,3110C3246,2865 3216,2640 3203,2403C3197,2282 3197,2281 3219,2287C3234,2291 3240,2288 3240,2276C3240,2254 3266,2256 3292,2280C3304,2291 3322,2300 3333,2300C3346,2300 3363,2324 3396,2393C3525,2668 3696,3381 3736,3814L3742,3882L3850,3875C3910,3872 3967,3867 3977,3865C3987,3863 4006,3861 4020,3861C4051,3860 4063,3828 4155,3500C4249,3163 4256,3132 4309,2880C4320,2828 4341,2754 4355,2715C4370,2677 4389,2625 4397,2600C4406,2575 4416,2551 4420,2545C4423,2540 4432,2515 4440,2490C4447,2465 4461,2436 4471,2425C4481,2414 4492,2393 4495,2378C4499,2363 4526,2325 4556,2292C4601,2242 4616,2232 4652,2227C4675,2224 4699,2225 4705,2230C4711,2235 4733,2237 4753,2233C4788,2228 4790,2229 4790,2256C4790,2353 4714,2730 4666,2870C4658,2895 4632,2989 4610,3080C4587,3171 4560,3277 4548,3315C4537,3354 4517,3435 4505,3495C4481,3609 4445,3747 4410,3860L4390,3925L4413,3943C4425,3953 4453,3973 4474,3987C4531,4024 4589,4095 4590,4129C4590,4139 4581,4141 4553,4136C4532,4133 4472,4135 4419,4141L4323,4153L4296,4249C4281,4302 4239,4428 4203,4530C4167,4632 4125,4753 4108,4800C4062,4931 4040,4988 3997,5080C3976,5126 3951,5183 3942,5205C3933,5227 3911,5273 3893,5306C3848,5389 3810,5487 3810,5522C3810,5555 3784,5600 3765,5600C3758,5600 3748,5594 3742,5588ZM3852,4425C3863,4392 3883,4337 3897,4302C3911,4267 3919,4236 3915,4232C3909,4225 3779,4229 3771,4235C3769,4237 3773,4276 3779,4322C3792,4414 3798,4479 3800,4525L3801,4555L3816,4520C3825,4501 3841,4458 3852,4425Z" style="fill-rule:nonzero;"/>
                <path d="M8670,5522C8623,5512 8554,5489 8515,5471C8477,5453 8435,5434 8423,5429C8410,5424 8400,5412 8400,5401C8400,5390 8385,5373 8363,5360C8327,5339 8326,5338 8345,5323C8358,5314 8384,5310 8415,5311C8505,5315 8558,5310 8572,5297C8585,5284 8661,5238 8715,5210C8781,5176 8977,5117 9110,5091C9261,5061 9358,5060 9502,5085C9529,5089 9528,5088 9478,5012C9449,4970 9419,4926 9409,4915C9400,4904 9373,4860 9351,4817C9328,4774 9294,4715 9276,4687C9258,4658 9231,4615 9216,4590C9178,4525 9168,4509 9144,4475C9132,4458 9113,4425 9101,4400C9089,4375 9057,4315 9030,4265C8897,4027 8780,3761 8695,3503C8670,3430 8642,3354 8632,3333C8621,3312 8607,3268 8600,3235C8593,3202 8573,3135 8555,3085C8537,3036 8508,2955 8490,2905C8434,2744 8420,2719 8375,2700C8335,2683 8270,2632 8270,2618C8270,2613 8281,2610 8294,2610C8308,2610 8322,2606 8325,2600C8328,2595 8340,2590 8350,2590C8366,2590 8369,2582 8369,2533C8370,2501 8373,2459 8378,2440C8384,2411 8390,2405 8416,2402C8436,2400 8452,2406 8464,2419C8474,2430 8488,2436 8495,2434C8507,2429 8552,2481 8586,2536C8597,2554 8599,2554 8631,2538C8745,2481 8909,2461 9264,2460C9407,2459 9552,2458 9585,2457C9650,2456 9733,2464 9802,2479C9825,2484 9859,2487 9877,2484C9903,2481 9913,2486 9930,2511C9959,2550 9948,2563 9850,2608C9750,2654 9712,2667 9605,2694C9398,2747 9217,2770 8962,2777L8738,2783L8744,2814C8750,2846 8777,2922 8832,3065C8859,3136 8891,3226 8990,3505C9015,3578 9031,3615 9091,3747C9101,3770 9110,3791 9110,3794C9110,3809 9261,4120 9280,4145C9287,4154 9346,4260 9435,4425C9455,4464 9480,4506 9490,4520C9514,4554 9549,4617 9572,4665C9582,4687 9596,4714 9602,4725C9608,4736 9649,4815 9693,4900C9774,5060 9778,5068 9850,5210C9904,5316 9922,5349 9956,5400C9991,5452 9996,5525 9965,5525C9954,5525 9940,5514 9934,5501C9927,5488 9901,5465 9876,5451C9851,5436 9820,5415 9807,5403C9794,5392 9767,5372 9746,5358L9710,5333L9647,5350C9613,5360 9549,5380 9505,5394C9461,5408 9405,5424 9380,5430C9355,5436 9319,5445 9300,5450C9281,5455 9231,5467 9190,5478C8984,5532 8798,5548 8670,5522Z" style="fill-rule:nonzero;"/>
                <path d="M10403,5492C10380,5481 10370,5469 10370,5453C10370,5438 10360,5425 10340,5415C10293,5391 10257,5310 10259,5232C10260,5197 10256,5141 10251,5107C10245,5073 10238,4892 10234,4705C10231,4518 10228,4361 10228,4355C10228,4350 10231,4228 10236,4085C10241,3942 10244,3557 10243,3229C10240,2726 10242,2625 10255,2584C10263,2557 10270,2522 10270,2505C10270,2462 10301,2405 10324,2407C10335,2407 10349,2396 10359,2379C10368,2363 10382,2351 10390,2352C10412,2357 10465,2469 10506,2600C10572,2809 10572,2809 10575,3505C10577,4142 10572,4311 10545,4610C10536,4701 10525,4840 10519,4920C10503,5167 10459,5494 10441,5504C10438,5506 10420,5501 10403,5492Z" style="fill-rule:nonzero;"/>
                <path d="M6363,5468C6359,5461 6351,5448 6345,5438C6340,5429 6320,5401 6302,5375C6232,5275 6211,5207 6209,5080C6209,5033 6205,4957 6202,4910C6198,4863 6199,4798 6203,4765C6208,4732 6211,4514 6210,4280C6209,4034 6214,3807 6220,3740C6238,3554 6241,3500 6234,3489C6229,3479 6184,3564 6017,3905C5871,4202 5727,4485 5702,4524C5688,4547 5657,4601 5635,4645C5591,4729 5455,4984 5413,5060C5399,5085 5367,5143 5342,5190C5274,5316 5169,5470 5150,5470C5140,5470 5122,5442 5097,5388C5061,5307 5060,5300 5044,5085C5022,4810 5023,4634 5046,4300C5048,4259 5053,4110 5055,3970C5057,3830 5062,3695 5066,3670C5069,3645 5073,3393 5074,3110C5076,2672 5079,2585 5093,2527C5123,2402 5160,2372 5212,2428C5257,2476 5293,2586 5325,2775C5373,3052 5393,3710 5366,4113C5342,4474 5337,4460 5425,4284C5467,4202 5508,4115 5516,4090C5525,4065 5569,3973 5613,3885C5732,3647 5760,3590 5760,3584C5760,3581 5774,3557 5792,3531C5809,3506 5850,3433 5883,3370C5915,3307 5970,3203 6003,3140C6060,3034 6157,2825 6182,2755C6188,2739 6206,2706 6221,2682C6237,2658 6250,2636 6250,2633C6250,2629 6261,2614 6275,2600C6294,2580 6301,2560 6304,2518C6307,2487 6315,2452 6322,2441C6341,2410 6376,2414 6397,2451C6412,2476 6420,2480 6441,2476C6470,2470 6490,2485 6490,2512C6490,2523 6499,2543 6510,2558C6521,2573 6542,2637 6556,2700C6581,2806 6583,2833 6584,3060C6586,3427 6573,3738 6540,4170C6534,4244 6525,4454 6520,4635C6515,4817 6508,4979 6506,4995C6503,5012 6496,5070 6489,5125C6483,5180 6467,5272 6454,5330C6441,5388 6428,5445 6425,5458C6419,5483 6377,5489 6363,5468Z" style="fill-rule:nonzero;"/>
                <path d="M15675,5354C15510,5339 15436,5323 15380,5288C15355,5273 15317,5251 15295,5239C15253,5217 15153,5135 15110,5088C15074,5049 14996,4941 14974,4900C14963,4881 14943,4849 14928,4830C14914,4810 14890,4763 14877,4725C14863,4686 14845,4642 14836,4625C14827,4609 14817,4579 14814,4560C14811,4541 14802,4508 14794,4487C14784,4461 14778,4389 14774,4262C14772,4159 14765,4035 14759,3985C14742,3825 14740,3670 14755,3585C14762,3541 14772,3474 14775,3435C14783,3346 14797,3292 14916,2870C14925,2840 14935,2811 14940,2805C14944,2800 14958,2762 14971,2721C14990,2661 15004,2637 15044,2598C15070,2572 15100,2550 15110,2550C15120,2550 15133,2543 15140,2535C15147,2527 15162,2520 15173,2520C15184,2520 15212,2509 15235,2495C15258,2482 15280,2474 15284,2477C15297,2490 15432,2479 15456,2464C15478,2449 15483,2450 15542,2484C15616,2525 15780,2654 15812,2696C15824,2712 15842,2733 15851,2743C15878,2773 15985,2980 16008,3045C16135,3416 16181,3779 16145,4148C16125,4363 16104,4466 16028,4740C16005,4826 15923,5144 15908,5208C15903,5231 15893,5250 15887,5250C15835,5250 15739,5141 15715,5055C15690,4967 15690,4439 15715,4285C15742,4119 15733,3755 15700,3630C15694,3611 15683,3541 15675,3475C15660,3361 15615,3127 15606,3111C15603,3107 15585,3039 15565,2959C15546,2880 15525,2807 15520,2798C15514,2788 15510,2774 15510,2765C15510,2737 15436,2622 15416,2621C15399,2619 15357,2675 15329,2735C15298,2800 15257,2953 15236,3080C15233,3094 15220,3173 15206,3255C15166,3494 15150,3644 15150,3795C15150,3992 15160,4091 15215,4430C15217,4444 15221,4476 15224,4502C15230,4549 15278,4710 15298,4746C15304,4756 15320,4791 15335,4823C15349,4854 15365,4880 15370,4880C15376,4880 15380,4891 15380,4905C15380,4918 15387,4935 15396,4942C15405,4949 15429,4972 15451,4993C15472,5013 15500,5035 15512,5040C15525,5046 15549,5059 15565,5070C15582,5081 15612,5097 15633,5106C15653,5115 15670,5126 15670,5131C15670,5136 15675,5140 15681,5140C15698,5140 15790,5220 15790,5235C15790,5242 15806,5262 15826,5279C15855,5305 15861,5316 15856,5336C15852,5350 15845,5358 15839,5355C15834,5351 15824,5352 15817,5357C15810,5363 15752,5361 15675,5354Z" style="fill-rule:nonzero;"/>
            </g>
        </g>
    </g>
</svg>
