<?xml version="1.0" standalone="no"?>
<!DOCTYPE svg PUBLIC "-//W3C//DTD SVG 20010904//EN"
 "http://www.w3.org/TR/2001/REC-SVG-20010904/DTD/svg10.dtd">
<svg version="1.0" xmlns="http://www.w3.org/2000/svg"
 width="173.000000pt" height="178.000000pt" viewBox="0 0 173.000000 178.000000"
 preserveAspectRatio="xMidYMid meet">

<g transform="translate(0.000000,178.000000) scale(0.100000,-0.100000)"
fill="#000000" stroke="none">
<path d="M0 890 l0 -890 865 0 865 0 0 890 0 890 -865 0 -865 0 0 -890z m1006
726 c-12 -32 -14 -50 -7 -67 6 -13 24 -73 40 -134 16 -60 49 -177 71 -260 23
-82 50 -181 60 -220 10 -38 39 -137 65 -220 77 -249 110 -453 88 -550 l-10
-40 -17 60 c-29 96 -34 106 -36 65 -1 -23 -11 7 -31 90 -16 69 -35 143 -43
165 -46 127 -171 610 -250 968 -1 5 -23 -18 -49 -50 -41 -50 -47 -64 -47 -104
0 -35 -5 -51 -24 -68 l-23 -22 -36 40 c-19 22 -46 58 -59 80 -13 23 -26 41
-30 41 -5 0 -8 -73 -8 -162 0 -251 -15 -356 -90 -638 -22 -80 -51 -199 -65
-265 -29 -130 -81 -301 -94 -309 -4 -3 -7 5 -5 17 18 122 33 263 34 314 0 39
17 126 44 235 60 231 66 287 66 577 0 186 4 261 15 304 8 31 12 70 9 87 -6 29
-1 42 41 95 12 15 18 17 24 7 4 -7 14 -12 22 -10 8 2 15 -7 17 -22 2 -14 16
-38 31 -55 16 -16 43 -52 61 -80 18 -27 34 -52 36 -54 9 -11 114 130 114 154
0 9 7 30 16 46 14 28 17 29 28 14 11 -16 14 -15 31 11 25 39 32 14 11 -40z"/>
</g>
</svg>
